<mxfile host="app.diagrams.net" agent="Mozilla/5.0 (Windows NT 10.0; Win64; x64) AppleWebKit/537.36 (KHTML, like Gecko) Chrome/133.0.0.0 Safari/537.36" version="26.0.15">
  <diagram name="Страница — 1" id="ZE8w9SrLjhchm2RUMcUQ">
    <mxGraphModel dx="1050" dy="557" grid="1" gridSize="10" guides="1" tooltips="1" connect="1" arrows="1" fold="1" page="1" pageScale="1" pageWidth="827" pageHeight="1169" math="0" shadow="0">
      <root>
        <mxCell id="0" />
        <mxCell id="1" parent="0" />
        <mxCell id="Wm2uXoSRfv7PxTgjMT4e-23" value="Аренда помещений" style="swimlane;whiteSpace=wrap;html=1;" vertex="1" parent="1">
          <mxGeometry x="340" y="120" width="200" height="380" as="geometry" />
        </mxCell>
        <mxCell id="Wm2uXoSRfv7PxTgjMT4e-24" value="Размещение помещения для аренды" style="ellipse;whiteSpace=wrap;html=1;" vertex="1" parent="Wm2uXoSRfv7PxTgjMT4e-23">
          <mxGeometry x="25" y="40" width="150" height="70" as="geometry" />
        </mxCell>
        <mxCell id="Wm2uXoSRfv7PxTgjMT4e-25" value="Редактирование параметров арендного помещения" style="ellipse;whiteSpace=wrap;html=1;" vertex="1" parent="Wm2uXoSRfv7PxTgjMT4e-23">
          <mxGeometry x="25" y="130" width="150" height="60" as="geometry" />
        </mxCell>
        <mxCell id="Wm2uXoSRfv7PxTgjMT4e-26" value="Удаление арендного помещения" style="ellipse;whiteSpace=wrap;html=1;" vertex="1" parent="Wm2uXoSRfv7PxTgjMT4e-23">
          <mxGeometry x="35" y="200" width="135" height="60" as="geometry" />
        </mxCell>
        <mxCell id="Wm2uXoSRfv7PxTgjMT4e-31" value="Оставить отзыв и оценку на пользование помещением арендатору" style="ellipse;whiteSpace=wrap;html=1;" vertex="1" parent="Wm2uXoSRfv7PxTgjMT4e-23">
          <mxGeometry x="16.25" y="270" width="167.5" height="80" as="geometry" />
        </mxCell>
        <mxCell id="Wm2uXoSRfv7PxTgjMT4e-27" value="Арендодатель" style="shape=umlActor;verticalLabelPosition=bottom;verticalAlign=top;html=1;outlineConnect=0;" vertex="1" parent="1">
          <mxGeometry x="230" y="195" width="30" height="60" as="geometry" />
        </mxCell>
        <mxCell id="Wm2uXoSRfv7PxTgjMT4e-28" value="" style="endArrow=none;html=1;rounded=0;" edge="1" parent="1">
          <mxGeometry width="50" height="50" relative="1" as="geometry">
            <mxPoint x="280" y="210" as="sourcePoint" />
            <mxPoint x="350" y="200" as="targetPoint" />
          </mxGeometry>
        </mxCell>
        <mxCell id="Wm2uXoSRfv7PxTgjMT4e-29" value="" style="endArrow=none;html=1;rounded=0;" edge="1" parent="1">
          <mxGeometry width="50" height="50" relative="1" as="geometry">
            <mxPoint x="280" y="240" as="sourcePoint" />
            <mxPoint x="360" y="270" as="targetPoint" />
          </mxGeometry>
        </mxCell>
        <mxCell id="Wm2uXoSRfv7PxTgjMT4e-30" value="" style="endArrow=none;html=1;rounded=0;" edge="1" parent="1">
          <mxGeometry width="50" height="50" relative="1" as="geometry">
            <mxPoint x="370" y="330" as="sourcePoint" />
            <mxPoint x="280" y="280" as="targetPoint" />
          </mxGeometry>
        </mxCell>
        <mxCell id="Wm2uXoSRfv7PxTgjMT4e-32" value="" style="endArrow=none;html=1;rounded=0;" edge="1" parent="1">
          <mxGeometry width="50" height="50" relative="1" as="geometry">
            <mxPoint x="350" y="390" as="sourcePoint" />
            <mxPoint x="250" y="290" as="targetPoint" />
          </mxGeometry>
        </mxCell>
      </root>
    </mxGraphModel>
  </diagram>
</mxfile>
